# xmcd CD database file
#
# Track frame offsets:
#	182
#	19980
#	39367
#	49952
#	65740
#	82235
#	94427
#	117265
#	131687
#	176767
#	190847
#	210967
#	236570
#	248017
#	267682
#	286857
#	305760
#
# Disc length: 4245 seconds
#
# Revision: 0
# Processed by: cddbd v1.5PL3 Copyright (c) Steve Scherf et al.
# Submitted via: CDex 1.60beta1
#
DISCID=03109311
DTITLE=Dick Wellstood - Live at Hanratty's
DYEAR=1981
DGENRE=Jazz
TTITLE0=Cha Cha for Charlie 
TTITLE1=I Wish I Were Twins
TTITLE2=Gee Baby, Ain't I Good to You
TTITLE3=Quincy Street Stomp
TTITLE4=Barbara Song
TTITLE5=How Could I Be Blue?
TTITLE6=Georgia Cabin/Ghost of the Blues
TTITLE7=Ain't Misbehavin' 
TTITLE8=Deed I Do/Georgia on My Mind/Don't Let It Bother You
TTITLE9=I'm Putting All My Eggs in One Basket
TTITLE10=Looking at You/You've Been a Good Ole Wagon
TTITLE11=Runnin' Wild
TTITLE12=So in Love
TTITLE13=Everybody Loves My Baby
TTITLE14=Pretty Girl Is Like a Melody
TTITLE15=Cornet Chop Suey
TTITLE16=My Shining Hour
EXTD=YEAR: 1981
EXTT0=
EXTT1=
EXTT2=
EXTT3=
EXTT4=
EXTT5=
EXTT6=
EXTT7=
EXTT8=
EXTT9=
EXTT10=
EXTT11=
EXTT12=
EXTT13=
EXTT14=
EXTT15=
EXTT16=
PLAYORDER=
